<?xml version="1.0" encoding="UTF-8" standalone="no"?>
<!DOCTYPE svg PUBLIC "-//W3C//DTD SVG 1.1//EN" "http://www.w3.org/Graphics/SVG/1.1/DTD/svg11.dtd">
<svg width="100%" height="100%" viewBox="0 0 2350 5351" version="1.1" xmlns="http://www.w3.org/2000/svg" xmlns:xlink="http://www.w3.org/1999/xlink" xml:space="preserve" xmlns:serif="http://www.serif.com/" style="fill-rule:evenodd;clip-rule:evenodd;stroke-linecap:round;stroke-linejoin:round;">
    <g id="Body">
        <path id="Body1" serif:id="Body" d="M1809.98,1022.04C1809.98,1049.19 1831.96,1073.98 1834.06,1102.31C1838.38,1160.71 1820.68,1214.11 1820.68,1270.86C1820.68,1320.05 1864.8,1380.46 1876.86,1428.72C1896.28,1506.38 1897.15,1582.68 1908.97,1661.49C1915.98,1708.21 1967.03,1755.7 1975.86,1808.64C2000.92,1959.02 1981.06,2129.25 2029.37,2274.18C2052.21,2342.71 2296.49,2493.86 2291.57,2528.35C2280.88,2603.12 2139.86,2480.46 2135.05,2478.85C2113.52,2543.43 2286.71,2798.15 2212.64,2837.37C2184.85,2852.08 2115.52,2638.05 2100.27,2612.63C2097.18,2659.01 2196.28,2846.45 2140.4,2877.5C2098.42,2900.83 2065.95,2713.29 2044.08,2676.84C2034.81,2741.76 2079.53,2825.93 2085.55,2892.22C2011.28,2916.97 1990.6,2715.28 1977.19,2666.14C1975.71,2739.07 1994.01,2794.01 2002.61,2862.78C1917.78,2891.06 1922.75,2649.95 1898.27,2576.51C1873.3,2501.6 1887.96,2422.7 1866.16,2346.41C1821.69,2190.76 1735.98,2036.12 1684.23,1880.88C1654.29,1791.06 1702.13,1742.16 1656.13,1665.5C1650.31,1787.88 1633.39,1913.49 1633.39,2036.06C1633.39,2110.44 1669.35,2190.74 1676.2,2266.15C1691.39,2433.27 1702.96,2606.57 1702.96,2774.49C1702.96,2929.45 1663.11,3084.81 1657.47,3242.71C1654.34,3330.44 1672.74,3370.67 1676.2,3443.37C1679.46,3511.88 1665.5,3543.13 1665.5,3598.55C1665.5,3747.93 1678.88,3901.18 1678.88,4050.71C1678.88,4186.59 1677.46,4289.92 1719.01,4414.57C1739.76,4476.82 1838.96,4540.55 1828.7,4607.21C1822.59,4646.94 1735.84,4721.74 1712.32,4742.32C1544.45,4889.21 1523.87,4505.98 1491.59,4425.28C1476.51,4387.57 1449.78,4350.63 1446.11,4310.23C1437.25,4212.79 1464.07,4120.65 1448.78,4021.28C1439.37,3960.12 1411.65,3902.66 1400.62,3842.02C1386.44,3764 1391.32,3694.78 1387.25,3611.93C1381.99,3505.07 1316.86,3395.61 1298.96,3288.19C1291.24,3241.93 1298.1,2886.69 1225.38,2872.15C1109.88,2849.05 1122.63,3128.9 1106.32,3218.63C1092.97,3292.02 1066.19,3374.2 1066.19,3448.72C1066.19,3548.52 1073.47,3648.84 1058.16,3748.38C1035.82,3893.59 991.273,4026.79 991.273,4176.46C991.273,4219.99 1023.38,4268.16 1023.38,4315.58C1023.38,4358.74 987.361,4374.04 977.895,4411.9C959.412,4485.83 919.46,4692.4 874.889,4736.97C793.951,4817.91 656.835,4644.95 656.835,4572.43C656.835,4466.63 777.3,4411.63 801.312,4315.58C811.565,4274.57 808.902,4242.63 806.663,4197.86C808.67,4197.19 808.67,4197.19 810.677,4196.52C813.245,4101.5 778.194,4011.5 774.557,3916.93C769.21,3777.91 753.153,3646.44 753.153,3510.26C753.153,3470.87 777.233,3429.66 777.233,3392.53C777.233,3291.76 709.873,3189.52 707.67,3084.85C704.642,2941.05 691.617,2795.39 691.617,2651.42C691.617,2581.5 716.162,2516.13 723.723,2448.08C730.877,2383.69 715.696,2317.5 715.696,2252.77C715.696,2186.97 753.153,2126.22 753.153,2062.81C753.153,1916.69 712.393,1770.94 698.306,1625.37C690.943,1662.18 648.809,1708.83 648.809,1744.43C648.809,1826.53 667.002,1900.94 635.431,1979.87C578.575,2122.01 476.353,2254.38 434.769,2399.92C412.86,2476.61 435.638,2559.22 418.716,2635.37C405.837,2693.32 353.199,2957.17 310.358,2952.41C293.209,2950.51 323.166,2782.81 321.06,2762.45C306.301,2836.25 282.695,2904.3 259.524,2973.82C181.699,2973.82 257.29,2789.69 262.199,2735.7C221.569,2803.42 208.966,2895.4 184.609,2968.47C91.164,2968.47 191.233,2745.26 207.351,2696.9C205.345,2696.24 205.345,2696.24 203.338,2695.57C197.082,2726.85 111.601,2940.72 84.278,2905.59C46.308,2856.77 156.133,2626.59 169.894,2557.78C152.471,2554.29 31.087,2665.97 14.715,2605.94C4.89,2569.91 234.561,2448.94 250.159,2386.55C293.911,2211.54 307.802,2027.07 330.424,1846.1C336.874,1794.49 415.789,1750.91 426.742,1701.62C443.006,1628.43 439.597,1548.79 456.173,1474.2C470.673,1408.95 506.14,1361.18 531.087,1302.97C550.788,1257 523.06,1203.15 523.06,1153.14C523.06,1129.76 556.624,1012.68 588.61,1012.68C608.05,954.358 706.72,943.773 754.491,935.087C803.72,926.137 984.148,849.907 1018.03,816.028C1038.45,795.604 1044.83,769.766 1034.08,741.114C996.694,641.416 955.268,617.575 951.14,489.616C949.645,443.257 948.465,396.874 948.465,350.49C948.465,313.184 1008.14,256.036 1027.39,236.782C1122.05,142.122 1269.28,179.012 1355.14,264.875C1433.64,343.369 1421.5,531.063 1384.57,623.391C1367.06,667.168 1339.09,696.811 1339.09,746.465C1339.09,793.609 1402.64,796.186 1434.07,806.663C1468.05,817.99 1528.22,876.974 1557.14,878.902C1602.13,881.901 1665.36,884.681 1701.62,913.683C1728.12,934.882 1792.73,1016.29 1809.98,1022.04Z" style="fill:rgb(191,122,89);stroke:rgb(191,122,89);stroke-width:1px;"/>
    </g>
    <g id="Zones">
        <g id="Pelvic" transform="matrix(1,0,0,1,120.056,-44.996)">
            <ellipse cx="1064.42" cy="2329.47" rx="195.018" ry="116.511" style="fill:rgb(255,0,0);"/>
        </g>
        <ellipse id="Subxiphoid" cx="1189.07" cy="1621.5" rx="132.023" ry="72.759" style="fill:rgb(255,0,0);"/>
        <g id="LUQ" transform="matrix(0.995855,-0.09096,0.09096,0.995855,-197.554,171.793)">
            <ellipse cx="1579.3" cy="1745.96" rx="66.538" ry="143.604" style="fill:rgb(255,0,0);"/>
        </g>
        <ellipse id="R-Lung" serif:id="R Lung" cx="955.751" cy="1216.86" rx="73.335" ry="264.153" style="fill:rgb(255,0,0);"/>
        <g id="L-Lung" serif:id="L Lung" transform="matrix(1,0,0,1,544.87,19.1101)">
            <ellipse cx="955.751" cy="1216.86" rx="73.335" ry="264.153" style="fill:rgb(255,0,0);"/>
        </g>
        <g id="RUQ--Liver-" serif:id="RUQ (Liver)" transform="matrix(0.829527,0,0,0.829527,126.358,275.078)">
            <g transform="matrix(0.974504,0,0,0.644628,-7.63263,618.049)">
                <ellipse cx="940.011" cy="1737.16" rx="78.442" ry="96.795" style="fill:rgb(255,0,0);"/>
            </g>
            <ellipse cx="975.298" cy="1688.41" rx="63.331" ry="74.796" style="fill:rgb(255,0,0);"/>
            <ellipse cx="846.103" cy="1724.05" rx="104.885" ry="83.506" style="fill:rgb(255,0,0);"/>
        </g>
    </g>
</svg>
